<svg xmlns="http://www.w3.org/2000/svg" xmlns:xlink="http://www.w3.org/1999/xlink" viewBox="0,0,256,256" width="50px" height="50px"><g fill="#ffffff" fill-rule="nonzero" stroke="none" stroke-width="1" stroke-linecap="butt" stroke-linejoin="miter" stroke-miterlimit="10" stroke-dasharray="" stroke-dashoffset="0" font-family="none" font-weight="none" font-size="none" text-anchor="none" style="mix-blend-mode: normal"><g transform="scale(5.12,5.12)"><path d="M16,3c-7.14545,0 -13,5.85455 -13,13v18c0,7.14545 5.85455,13 13,13h18c7.14545,0 13,-5.85455 13,-13v-18c0,-7.14545 -5.85455,-13 -13,-13zM16,5h18c6.05454,0 11,4.94545 11,11v18c0,6.05454 -4.94546,11 -11,11h-18c-6.05455,0 -11,-4.94546 -11,-11v-18c0,-6.05455 4.94545,-11 11,-11zM37,11c-1.1,0 -2,0.9 -2,2c0,1.1 0.9,2 2,2c1.1,0 2,-0.9 2,-2c0,-1.1 -0.9,-2 -2,-2zM25,14c-6.04545,0 -11,4.95454 -11,11c0,6.04546 4.95454,11 11,11c6.04546,0 11,-4.95454 11,-11c0,-6.04545 -4.95454,-11 -11,-11zM25,16c4.95454,0 9,4.04546 9,9c0,4.95454 -4.04546,9 -9,9c-4.95454,0 -9,-4.04546 -9,-9c0,-4.95454 4.04546,-9 9,-9z"></path></g></g></svg>